<?xml version="1.0" encoding="UTF-8" standalone="no"?>
<!-- Created with Inkscape (http://www.inkscape.org/) -->
<svg
   xmlns:svg="http://www.w3.org/2000/svg"
   xmlns="http://www.w3.org/2000/svg"
   xmlns:xlink="http://www.w3.org/1999/xlink"
   xmlns:inkscape="http://www.inkscape.org/namespaces/inkscape"
   version="1.0"
   width="448.21634"
   height="448.21634"
   id="svg2">
  <defs
     id="defs4">
    <linearGradient
       id="linearGradient3364">
      <stop
         id="stop3366"
         style="stop-color:#ffffff;stop-opacity:1"
         offset="0" />
      <stop
         id="stop3368"
         style="stop-color:#000000;stop-opacity:1"
         offset="1" />
    </linearGradient>
    <linearGradient
       id="linearGradient3318">
      <stop
         id="stop3320"
         style="stop-color:#ffffff;stop-opacity:1"
         offset="0" />
      <stop
         id="stop3322"
         style="stop-color:#ffffff;stop-opacity:0"
         offset="1" />
    </linearGradient>
    <linearGradient
       id="linearGradient14176">
      <stop
         id="stop14178"
         style="stop-color:#ffffff;stop-opacity:1"
         offset="0" />
      <stop
         id="stop14180"
         style="stop-color:#ffffff;stop-opacity:0"
         offset="1" />
    </linearGradient>
    <linearGradient
       id="linearGradient11163">
      <stop
         id="stop11165"
         style="stop-color:#83c1ef;stop-opacity:1"
         offset="0" />
      <stop
         id="stop11167"
         style="stop-color:#729ec0;stop-opacity:0"
         offset="1" />
    </linearGradient>
    <linearGradient
       id="linearGradient10084">
      <stop
         id="stop10086"
         style="stop-color:#e2ebf3;stop-opacity:0.86087"
         offset="0" />
      <stop
         id="stop10088"
         style="stop-color:#e2ebf3;stop-opacity:0.227451"
         offset="1" />
    </linearGradient>
    <linearGradient
       id="linearGradient7124">
      <stop
         id="stop7126"
         style="stop-color:#69f931;stop-opacity:1"
         offset="0" />
      <stop
         id="stop7128"
         style="stop-color:#f1fee4;stop-opacity:0.0434783"
         offset="1" />
    </linearGradient>
    <linearGradient
       id="linearGradient4198">
      <stop
         id="stop4200"
         style="stop-color:#588cb5;stop-opacity:1"
         offset="0" />
      <stop
         id="stop4202"
         style="stop-color:#438cc4;stop-opacity:1"
         offset="1" />
    </linearGradient>
    <linearGradient
       x1="345.29486"
       y1="216.60402"
       x2="345.29486"
       y2="659.35962"
       id="linearGradient4204"
       xlink:href="#linearGradient4198"
       gradientUnits="userSpaceOnUse" />
    <radialGradient
       cx="290.16708"
       cy="248.16626"
       r="86.901543"
       fx="290.16708"
       fy="248.16626"
       id="radialGradient9072"
       xlink:href="#linearGradient7124"
       gradientUnits="userSpaceOnUse"
       gradientTransform="matrix(0.4002094,1.0223206,-1.9222649,0.7525106,824.40306,41.975497)" />
    <radialGradient
       cx="359.44235"
       cy="404.74509"
       r="211.3125"
       fx="359.44235"
       fy="404.74509"
       id="radialGradient10082"
       xlink:href="#linearGradient10084"
       gradientUnits="userSpaceOnUse"
       gradientTransform="matrix(1.1556,-6.11415e-5,0,0.576661,-57.4627,53.3928)" />
    <radialGradient
       cx="303.89319"
       cy="416.93665"
       r="224.10817"
       fx="303.89319"
       fy="416.93665"
       id="radialGradient11161"
       xlink:href="#linearGradient11163"
       gradientUnits="userSpaceOnUse"
       gradientTransform="matrix(0.934258,0,0,1,22.8126,-2.8010501e-7)" />
    <filter
       id="filter14172"
       height="1.3909334"
       y="-0.19546671"
       width="1.1020039"
       x="-0.05100197">
      <feGaussianBlur
         id="feGaussianBlur14174"
         stdDeviation="8.8998435"
         inkscape:collect="always" />
    </filter>
    <radialGradient
       cx="351.84375"
       cy="610.375"
       r="174.5"
       fx="351.84375"
       fy="610.375"
       id="radialGradient14184"
       xlink:href="#linearGradient14176"
       gradientUnits="userSpaceOnUse"
       gradientTransform="matrix(1.2586,0,0,0.244677,-90.9885,461.03)" />
    <filter
       id="filter15171"
       height="1.3084804"
       y="-0.15424021"
       width="1.1374978"
       x="-0.068748891">
      <feGaussianBlur
         id="feGaussianBlur15173"
         stdDeviation="14.5275"
         inkscape:collect="always" />
    </filter>
    <radialGradient
       cx="408.35135"
       cy="428.9469"
       r="82.419907"
       fx="408.35135"
       fy="428.9469"
       id="radialGradient4573"
       xlink:href="#linearGradient7124"
       gradientUnits="userSpaceOnUse"
       gradientTransform="matrix(-0.361849,1.55317,-2.58625,-0.602539,1581.2046,30.272439)" />
    <radialGradient
       cx="305.89532"
       cy="218.30354"
       r="86.901543"
       fx="305.89532"
       fy="218.30354"
       id="radialGradient3346"
       xlink:href="#linearGradient7124"
       gradientUnits="userSpaceOnUse"
       gradientTransform="matrix(7.6221435e-2,0.6721508,-2.0511635,0.2325997,783.6485,84.589192)" />
    <radialGradient
       cx="296.83017"
       cy="77.296135"
       r="221.26379"
       fx="296.83017"
       fy="77.296135"
       id="radialGradient3361"
       xlink:href="#linearGradient3318"
       gradientUnits="userSpaceOnUse"
       gradientTransform="matrix(1.9156547,0.4958684,-0.2761201,2.0779404,-270.41532,-136.61085)" />
    <radialGradient
       cx="141.62889"
       cy="230.81979"
       r="222.26379"
       fx="141.62889"
       fy="230.81979"
       id="radialGradient3372"
       xlink:href="#linearGradient3364"
       gradientUnits="userSpaceOnUse"
       gradientTransform="matrix(-0.1719592,0.9193378,-0.8463706,-0.1583112,416.79492,33.992712)" />
  </defs>
  <g
     transform="translate(-127.71426,-219.17851)"
     id="layer1"
     style="display:inline">
    <g
       id="layer7"
       style="display:inline">
      <path
         d="M 564.3755,441.46219 A 224.10817,224.10817 0 1 1 116.15916,441.46219 A 224.10817,224.10817 0 1 1 564.3755,441.46219 z"
         transform="translate(11.5551,1.82449)"
         id="path2241"
         style="opacity:1;fill:url(#linearGradient4204);fill-opacity:1;fill-rule:nonzero;stroke:none;stroke-width:1.5;stroke-linecap:butt;stroke-linejoin:miter;marker:none;stroke-miterlimit:4;stroke-dasharray:none;stroke-dashoffset:0;stroke-opacity:1;visibility:visible;display:inline;overflow:visible" />
      <path
         d="M 564.3755,441.46219 A 224.10817,224.10817 0 1 1 116.15916,441.46219 A 224.10817,224.10817 0 1 1 564.3755,441.46219 z"
         transform="translate(11.5551,1.82449)"
         id="path11159"
         style="opacity:1;fill:url(#radialGradient11161);fill-opacity:1;fill-rule:nonzero;stroke:none;stroke-width:1.5;stroke-linecap:butt;stroke-linejoin:miter;marker:none;stroke-miterlimit:4;stroke-dasharray:none;stroke-dashoffset:0;stroke-opacity:1;visibility:visible;display:inline;overflow:visible" />
    </g>
    <g
       id="layer6"
       style="display:inline">
      <path
         d="M 351.84375,234.5625 C 242.54487,234.5625 152.57356,316.88479 140.5,422.9375 C 195.92598,389.0005 270.19663,368.21875 351.8125,368.21875 C 433.42264,368.21875 507.70027,389.00473 563.125,422.9375 C 551.0544,316.88435 461.14201,234.5625 351.84375,234.5625 z"
         id="path10070"
         style="opacity:1;fill:url(#radialGradient10082);fill-opacity:1;fill-rule:nonzero;stroke:none;stroke-width:1.5;stroke-linecap:butt;stroke-linejoin:miter;marker:none;stroke-miterlimit:4;stroke-dasharray:none;stroke-dashoffset:0;stroke-opacity:1;visibility:visible;display:inline;overflow:visible" />
      <path
         d="M 177.34375,564.84375 C 215.7652,619.89994 279.56642,655.90624 351.84375,655.90625 C 424.13089,655.90627 487.93308,619.91249 526.34375,564.84375 C 479.09106,594.93606 418.2689,613.03125 351.84375,613.03125 C 285.42899,613.03124 224.60201,594.92785 177.34375,564.84375 z"
         id="path12141"
         style="opacity:1;fill:url(#radialGradient14184);fill-opacity:1;fill-rule:nonzero;stroke:none;stroke-width:1.5;stroke-linecap:butt;stroke-linejoin:miter;marker:none;stroke-miterlimit:4;stroke-dasharray:none;stroke-dashoffset:0;stroke-opacity:1;visibility:visible;display:inline;overflow:visible;filter:url(#filter14172)" />
      <path
         d="M 351.84375,274.5625 C 242.54487,274.5625 140.10847,358.71424 144.5,462.9375 C 199.92598,429.0005 270.19663,408.21875 351.8125,408.21875 C 433.42264,408.21875 503.70027,429.00473 559.125,462.9375 C 564.12931,359.93344 461.14201,274.5625 351.84375,274.5625 z"
         id="path10090"
         style="opacity:1;fill:#ffffff;fill-opacity:0.40273001;fill-rule:nonzero;stroke:none;stroke-width:1.5;stroke-linecap:butt;stroke-linejoin:miter;marker:none;stroke-miterlimit:4;stroke-dasharray:none;stroke-dashoffset:0;stroke-opacity:1;visibility:visible;display:inline;overflow:visible;filter:url(#filter15171)" />
    </g>
  </g>
  <g
     transform="translate(-127.71426,-219.17851)"
     id="layer3"
     style="display:inline">
    <g
       id="layer4"
       style="display:inline">
      <path
         d="M 321.52135,348.207 C 320.45076,348.15378 317.58268,349.97666 314.19958,349.18337 C 313.50342,347.02266 315.85159,347.90628 315.66413,346.25426 C 314.4632,343.22509 307.19853,346.25914 308.34235,340.88522 C 312.32691,340.93404 318.98719,340.07874 325.915,340.39704 C 327.79597,341.44468 326.50912,345.66014 328.84362,346.25426 C 329.20731,347.75689 327.50355,347.19255 327.86725,348.69518 C 327.78474,349.75356 329.59835,348.91633 330.30768,349.18337 C 330.30768,350.32229 330.30768,351.46123 330.30768,352.60016 C 330.37651,353.99588 332.3439,353.49256 333.72497,353.57652 C 336.91622,349.44601 342.11537,347.32289 345.43941,343.32565 C 349.58116,346.01798 352.65867,349.77407 360.08297,349.18337 C 364.10218,351.347 367.87194,353.76008 374.23882,353.57652 C 376.56941,357.10316 380.89618,358.63362 384.48921,360.8983 C 384.48921,362.1998 384.48921,363.5013 384.48921,364.80328 C 388.3029,366.03399 393.37855,366.00177 393.27554,371.14869 C 391.98136,371.15601 390.40111,370.87775 390.34693,372.12506 C 389.9349,374.48884 392.7029,373.67407 391.81099,376.51822 C 392.38802,377.07963 393.53622,377.07036 394.74009,377.00592 C 393.88137,380.14249 396.97548,379.32625 396.20415,382.37545 C 400.48113,384.11875 404.04193,386.57773 404.99048,391.64996 C 401.89051,392.14644 401.15238,390.28109 400.10913,388.72085 C 397.34308,388.72085 394.57704,388.72085 391.81099,388.72085 C 390.0135,385.31187 386.85251,383.26638 385.95376,378.95865 C 382.08784,377.68254 378.04177,374.83545 374.23882,377.4941 C 375.00966,380.5433 371.91604,379.72705 372.77427,382.86364 C 369.43363,383.91567 365.97729,384.85298 361.05933,384.3277 C 358.04432,378.17414 352.64207,378.50513 344.95123,379.93502 C 344.19699,375.60044 346.21465,374.03874 349.34488,373.58912 C 348.21474,363.98069 340.98181,360.47505 331.28404,359.43375 C 328.02835,356.69553 324.56029,356.0692 320.05729,357.9692 C 320.55231,354.05739 319.08238,352.11051 315.66413,352.11197 C 316.42765,349.62127 321.13618,351.07556 321.52135,348.207 z"
         id="path4073"
         style="fill:#226e00;fill-opacity:1;fill-rule:evenodd" />
      <path
         d="M 403.52593,382.86364 C 406.31004,383.33375 407.31472,385.5833 408.40727,387.74498 C 407.8771,387.86556 408.07629,388.71549 407.43091,388.72085 C 405.69493,387.69079 405.40934,385.21082 403.03775,384.81588 C 402.97574,383.94057 403.63577,383.78678 403.52593,382.86364 z"
         id="path4093"
         style="fill:#226e00;fill-opacity:1;fill-rule:evenodd" />
      <path
         d="M 329.61821,551.06548 C 332.0805,550.80394 332.84133,548.84094 334.07546,547.35123 C 328.02745,547.81709 324.45734,556.99238 316.24647,557.75172 C 317.84912,548.47242 309.07951,549.56536 308.81724,542.15099 C 301.50688,542.52769 296.82525,540.27492 292.47351,537.69374 C 288.85585,536.79991 290.45998,541.12788 286.52952,539.92199 C 282.579,535.37559 274.67425,539.78231 270.92954,542.15099 C 256.58596,540.93247 247.98056,545.45139 242.69859,553.29447 C 239.47917,553.29447 236.25976,553.29447 233.0411,553.29447 C 226.56587,547.5875 217.67887,554.68759 212.98238,557.75172 C 203.4148,558.40481 195.32429,557.58008 191.43766,552.55147 C 195.18015,545.7419 193.46308,535.9529 186.98042,533.23576 C 186.21885,519.8826 176.67207,515.3139 173.60794,504.26254 C 174.84652,504.26254 176.08435,504.26254 177.32294,504.26254 C 176.3444,497.81258 171.66129,495.06572 169.1507,490.14782 C 173.90811,487.21223 169.0868,476.0628 172.12269,473.06109 C 175.24922,471.91539 172.24083,476.90536 174.35169,476.77534 C 178.89957,471.91316 184.32049,467.92474 189.95316,464.14586 C 192.52244,463.55815 193.08935,464.97132 194.4104,465.63185 C 198.09567,463.12646 204.08424,462.92362 207.03988,459.68861 C 216.97377,464.31452 221.8404,452.6383 227.0986,447.80213 C 227.0986,445.0783 227.0986,442.35447 227.0986,439.62989 C 230.6858,439.50284 229.58096,434.6845 233.78484,435.17265 C 233.35687,438.82002 234.74776,440.6478 237.49909,441.11589 C 239.19906,439.84462 237.77177,435.44533 238.24209,432.94439 C 240.22366,432.94439 242.20449,432.94439 244.18532,432.94439 C 244.97959,430.1693 242.34046,430.82611 242.69933,428.48641 C 248.97766,423.3731 254.36366,417.36818 263.5003,415.11467 C 267.27696,417.03383 268.99106,421.01557 272.41554,423.28617 C 276.35416,419.95679 276.27615,425.29449 282.07376,424.02917 C 279.078,419.20562 282.48167,418.01608 282.81676,412.88568 C 284.64825,412.98376 286.39505,412.99787 287.27326,412.14268 C 287.27326,410.16185 287.27326,408.18102 287.27326,406.19944 C 291.91031,403.40726 301.65697,405.72467 304.36074,400.99919 C 304.71143,397.42909 299.82176,399.09935 300.64574,395.05596 C 312.19193,398.2605 323.58432,405.55824 334.0762,401.74219 C 334.33996,403.95558 337.13363,403.63758 336.30519,406.94244 C 331.232,410.53632 330.01794,417.99008 325.90471,422.54317 C 330.35749,429.72945 341.2699,430.45535 345.96268,437.40164 C 347.94425,437.40164 349.92509,437.40164 351.90666,437.40164 C 350.64356,443.12124 356.61876,441.60404 358.59216,444.08788 C 361.3145,444.08565 360.56334,440.61065 364.5354,441.85889 C 367.78082,434.95124 371.25508,428.27242 369.73564,416.59993 C 371.87325,412.05129 374.38681,407.87936 374.19363,400.99919 C 375.71752,399.05626 377.17528,397.04793 376.42189,392.8277 C 377.90788,392.8277 379.39387,392.8277 380.87913,392.8277 C 382.13628,400.73321 385.96569,406.0657 385.33711,415.85767 C 386.72132,420.16854 393.62006,418.96489 396.4806,421.80092 C 394.05545,435.61696 403.05316,438.01015 400.93784,451.51637 C 405.35571,455.76558 410.94232,458.8468 416.53857,461.9176 C 415.01766,468.14393 419.90287,467.96338 418.76757,473.80409 C 420.42371,475.61551 423.59483,475.91049 425.45381,477.51834 C 425.87434,486.75528 432.24333,490.04454 436.59729,495.34806 C 435.63659,503.30185 433.2382,509.81868 434.3683,519.86402 C 429.2223,522.8895 427.24517,529.08462 425.45381,535.46475 C 422.90161,536.62754 420.48389,537.92407 420.99656,542.15099 C 415.55187,542.64954 412.57988,545.62079 412.08133,551.06548 C 408.50528,554.17567 403.51827,555.8749 403.16684,562.20897 C 400.48685,562.00538 401.15183,565.14678 398.70885,565.18096 C 398.70885,567.16179 398.70885,569.14262 398.70885,571.12419 C 393.74934,574.33618 382.37404,571.13311 380.87913,577.81044 C 377.16488,577.81044 373.45064,577.81044 369.73564,577.81044 C 369.73564,576.57186 369.73564,575.33402 369.73564,574.09544 C 366.33122,573.66227 366.27253,576.57557 364.5354,577.81044 C 354.94478,579.47624 351.61169,574.88525 342.99143,575.58144 C 343.12591,573.96096 342.38365,573.21797 340.76318,573.35244 C 340.76244,570.87603 340.76318,568.40036 340.76318,565.92395 C 338.90271,564.31685 338.33283,561.4199 334.0762,562.20897 C 333.11699,558.52592 335.87425,558.55936 335.56219,555.52347 C 330.81072,554.98182 331.59161,559.9718 327.3907,559.98072 C 327.5549,556.43067 330.83598,555.99676 329.61821,551.06548 z"
         id="path4097"
         style="fill:#226e00;fill-opacity:1;fill-rule:evenodd" />
      <path
         d="M 329.61821,562.95196 C 330.19329,565.55839 323.49219,564.68315 322.93197,563.69496 C 322.35615,561.08852 329.05873,561.96452 329.61821,562.95196 z"
         id="path4101"
         style="fill:#226e00;fill-opacity:1;fill-rule:evenodd" />
      <path
         d="M 363.04941,588.95392 C 367.59878,588.11879 369.65911,589.77196 371.96389,591.18217 C 374.26793,589.77196 376.32975,588.11879 380.87838,588.95392 C 382.69278,599.42499 368.83364,605.88164 363.04941,599.35441 C 366.14993,596.34304 361.84946,594.27305 363.04941,588.95392 z"
         id="path4105"
         style="fill:#226e00;fill-opacity:1;fill-rule:evenodd" />
      <path
         d="M 501.48951,487.52686 C 500.91667,488.16935 500.76137,489.36654 501.57086,489.88604 C 502.70687,491.46558 503.79869,493.08658 504.63508,494.84845 C 504.12165,495.44192 503.34313,496.44096 504.09274,497.15339 C 506.42994,499.66898 507.8131,502.87251 509.9229,505.55966 C 510.2814,506.5816 510.48764,507.76279 511.4059,508.44871 C 512.34466,509.60205 512.76531,511.0829 513.72458,512.22773 C 514.31653,513.02448 514.68973,513.96031 514.86838,514.9244 C 515.45915,516.27476 516.35362,517.48825 516.70242,518.94174 C 517.29898,520.71206 518.3499,522.51856 517.89283,524.4446 C 517.52649,525.40895 518.49067,525.98633 518.57322,526.84651 C 518.45054,527.67955 517.31148,527.73414 517.2716,528.71758 C 516.86933,530.07332 517.1041,531.51115 516.83773,532.8936 C 516.84491,533.71225 516.82272,534.81647 515.91361,535.14167 C 514.01876,536.19054 511.49629,536.11096 510.03392,537.90006 C 509.39315,538.86236 510.09488,540.0598 510.73641,540.83888 C 511.47925,542.02215 512.95961,542.22003 514.1289,542.73423 C 515.69332,543.71365 516.59516,545.63858 518.46475,546.1267 C 520.63517,546.23414 522.18684,548.2393 522.64077,550.22137 C 523.01941,551.73431 522.98968,553.33343 522.45383,554.80503 C 521.76378,556.80987 520.6305,558.6709 519.19691,560.22754 C 518.44218,560.61181 517.68283,561.71819 518.7088,562.28843 C 519.50324,562.43336 520.0563,563.07976 520.74993,563.47081 C 521.386,563.90597 522.21026,563.19071 522.75293,563.8378 C 523.47994,564.37906 522.92973,565.78494 524.12597,565.83972 C 524.93939,565.91718 525.44808,565.21305 526.16598,564.97302 C 528.14437,563.9533 530.07543,562.49887 530.91146,560.36313 C 531.72945,558.88844 532.77126,557.52188 533.31873,555.91185 C 534.28262,553.70656 536.48515,552.16625 536.90431,549.70614 C 537.18974,548.55058 537.52344,547.40317 538.07034,546.34364 C 538.3364,545.43493 537.42579,544.85095 536.89768,544.28635 C 535.85793,542.71949 536.85987,540.52941 538.47754,539.80818 C 539.81508,539.07444 541.53615,538.85618 542.95141,539.48303 C 543.4979,539.98207 543.49499,541.22824 544.46996,541.13717 C 545.3933,540.77312 544.92083,539.5797 544.52419,538.96781 C 543.77708,537.32379 544.73708,535.30839 546.34103,534.60197 C 547.52607,533.44066 547.11606,531.68891 547.16143,530.21325 C 547.28022,529.32709 547.1562,528.43212 547.23589,527.55155 C 547.47689,526.47957 548.64628,525.80553 548.67309,524.65003 C 548.08386,523.84329 546.99643,523.65976 546.34103,522.91455 C 545.6462,522.51963 544.41031,522.36987 543.84627,522.94166 C 543.29823,523.56927 542.33781,523.65216 541.76355,524.16555 C 541.23284,524.97549 540.90892,526.05307 540.24851,526.69517 C 539.1364,526.95817 537.77962,527.59542 536.76873,526.73804 C 534.49343,525.83341 532.48185,524.41637 530.39623,523.1586 C 529.4879,523.45839 528.66041,522.50665 529.13215,521.76933 C 528.66569,520.96762 527.66187,520.56428 527.45089,519.59997 C 526.81812,518.37024 526.88823,516.93838 526.71833,515.60923 C 526.47465,514.76972 526.41888,513.76541 525.84787,513.08624 C 525.03194,512.53157 524.11488,511.95699 523.77968,510.98306 C 523.47931,510.41432 522.16797,509.91151 522.09843,510.90171 C 522.50869,511.6607 523.45714,512.40885 522.97376,513.35827 C 522.59566,514.48573 523.47511,515.44264 523.88815,516.40647 C 524.25643,517.12923 523.62506,518.15021 522.80347,517.7352 C 522.16065,517.34989 522.05387,516.54458 522.0442,515.86412 C 521.66828,514.64826 520.32871,514.27942 519.25114,513.93882 C 518.12127,513.49121 517.1938,512.49637 517.12804,511.24143 C 516.89253,510.15177 517.4025,509.10087 517.55022,508.05972 C 517.40338,506.98056 516.39916,506.33957 515.91575,505.42408 C 515.15195,504.96233 515.09506,503.76436 515.78017,503.20048 C 515.99012,501.61785 515.13586,500.1815 514.68536,498.71675 C 514.39564,497.87902 513.76254,496.97662 512.77018,497.04492 C 511.80744,496.84949 512.02924,495.47538 511.17028,495.0925 C 510.35349,494.65863 509.54391,494.18933 508.71339,493.79954 C 507.75422,493.86402 507.34866,492.96935 506.64174,492.67909 C 506.00345,492.92901 505.21729,493.38256 504.63508,492.76044 C 503.64139,491.70995 503.76229,490.1199 503.48392,488.78942 C 503.32418,487.79823 502.41776,487.37926 501.48951,487.52686 z M 522.2069,505.96642 C 521.35373,506.57179 522.08763,507.65669 522.42383,508.35272 C 522.88726,509.16721 524.17118,508.54863 523.85978,507.68142 C 523.65445,506.92793 523.10401,505.9197 522.2069,505.96642 z M 512.44478,507.13245 C 513.18718,507.47224 512.05276,507.25026 512.44478,507.13245 z M 513.52946,508.651 C 514.52997,508.59573 515.07755,510.09653 514.34297,510.73901 C 513.7494,510.24516 513.00085,509.45507 513.39387,508.62389 L 513.52946,508.651 z M 520.25447,512.58297 C 519.30308,512.51883 519.65235,514.35573 520.52564,513.93882 C 521.37033,513.90964 521.13372,512.16406 520.25447,512.58297 z M 517.05467,514.77944 C 517.92463,514.83615 517.93361,516.46506 517.00043,516.37935 C 516.3821,516.06417 515.94292,514.65498 517.05467,514.77944 z M 500.86582,551.03488 C 499.73653,552.91468 497.08618,553.36028 496.33728,555.5363 C 495.76824,557.20543 496.81084,559.114 495.76782,560.66141 C 494.96467,561.85838 494.27583,563.54058 492.64936,563.72564 C 491.63123,563.89027 490.46051,564.43536 490.29019,565.56959 C 489.21679,568.73581 488.26339,572.11381 485.88089,574.58432 C 484.11426,576.50242 481.26283,576.63704 479.26389,578.224 C 477.47715,579.42713 475.96327,581.00862 474.12001,582.12321 C 472.28429,583.03217 470.03874,583.19326 468.55001,584.72666 C 467.46382,585.54162 466.06986,585.92929 464.72303,585.7234 C 463.82691,585.72448 462.63063,585.84913 462.27832,586.82932 C 461.25243,588.24466 459.63961,589.04454 458.39623,590.23944 C 456.81849,591.51225 455.30482,592.86175 453.76358,594.17803 C 451.68545,594.82983 450.56115,596.86705 449.2223,598.42752 C 448.42752,599.39244 447.87039,600.53209 447.44532,601.68944 C 447.09276,602.21866 445.64798,602.43093 446.19794,603.23511 C 447.21946,603.62901 446.07533,604.59092 445.46578,604.48249 C 444.70006,605.17609 445.00506,606.65204 446.00812,606.95014 C 446.86355,607.57396 446.75223,609.1592 447.98766,609.30932 C 449.31914,609.518 450.60365,609.93091 451.89251,610.31265 C 452.86591,610.21975 453.59024,608.88494 454.63133,609.47202 C 455.69189,609.93461 455.12783,611.67146 456.32553,611.96825 C 457.54446,612.28809 458.94979,611.22564 460.05473,612.07525 C 460.95873,612.71306 459.91417,613.62011 460.21743,614.3802 C 460.83052,615.42192 462.23527,615.18223 463.25006,615.07394 C 464.16141,614.85832 464.87636,615.5141 465.50524,616.06145 C 466.30327,616.59054 467.23875,616.04175 468.11901,616.1507 C 470.11563,616.01296 472.46839,615.7627 473.72531,613.99315 C 474.35811,613.18483 475.10287,612.37899 476.13511,612.12949 C 476.94676,611.7967 477.68625,611.16522 477.86018,610.27923 C 478.5018,609.17433 479.99378,609.06534 481.12464,609.1195 C 481.88767,609.33845 482.77138,608.22817 482.07373,607.62806 C 481.50336,606.75566 482.36651,605.84584 482.94148,605.24177 C 483.9896,603.97655 484.32801,602.30263 485.08742,600.89935 C 486.0306,599.87631 487.55561,598.97205 487.41578,597.38191 C 487.41799,596.25174 487.11664,594.95162 487.87677,593.98821 C 488.22999,592.83275 488.95071,591.74809 490.09969,591.27342 C 492.38642,589.79013 495.06781,589.07122 497.67771,588.42455 C 498.61432,588.28233 498.54751,587.05697 499.37438,586.85644 C 500.80506,586.83817 501.35665,588.52601 502.58049,589.01539 C 503.54341,589.63137 505.01908,589.01926 505.09607,587.83265 C 505.06449,586.69091 503.94078,585.70986 502.82286,585.65012 C 501.93687,585.50054 501.757,584.41455 501.83458,583.66193 C 501.98972,582.39742 502.35258,580.79245 503.74022,580.37548 C 505.60293,580.12006 507.45138,578.97727 508.04335,577.11612 C 509.07912,575.07406 510.34914,573.06758 512.20072,571.67092 C 512.99437,570.47919 513.21476,568.73051 514.66837,568.11859 C 515.46586,567.63038 515.83319,566.45903 515.19029,565.70079 C 514.70683,564.69334 513.7726,563.82292 513.77351,562.64096 C 514.09812,561.76971 515.52827,562.16509 515.6717,561.14952 C 515.6508,560.17913 516.41607,559.10988 515.75305,558.22088 C 515.00554,557.81168 513.94335,558.82148 513.40079,557.88208 C 512.74831,556.97514 513.01303,555.63693 512.17361,554.83126 C 511.30098,554.44255 510.84053,555.59824 510.81376,556.28843 C 510.53807,557.69542 508.9815,558.19476 507.90994,558.8884 C 507.09362,559.22395 506.82626,560.28485 506.01805,560.58006 C 505.05647,560.56332 504.62429,559.45869 504.76649,558.63177 C 504.69763,557.30888 504.76543,555.95299 504.39103,554.66856 C 503.41384,555.00915 501.86666,555.04635 501.46242,553.86867 C 501.18594,553.13041 501.37042,552.18888 502.03185,551.7128 C 503.03443,552.30278 502.46457,550.43157 501.62509,551.11623 C 501.37431,551.07849 501.12095,550.94795 500.86582,551.03488 z M 456.09564,615.19371 C 454.93839,616.04203 455.95117,617.68477 455.10273,618.6981 C 454.60609,619.62838 453.82654,620.36739 453.11277,621.13233 C 452.98727,622.02692 454.62175,622.39532 454.76691,621.43062 C 456.23132,620.83534 458.02878,620.96424 459.24122,619.83072 C 459.89197,618.84737 459.00395,617.74476 458.50906,616.90208 C 457.92423,616.24582 457.3365,615.4372 456.47528,615.16659 C 456.34704,615.15501 456.22158,615.17279 456.09564,615.19371 z"
         id="path4427"
         style="fill:#226e00;fill-opacity:1" />
    </g>
    <g
       id="layer2" />
    <g
       id="layer5"
       style="display:inline">
      <path
         d="M 199.21492,550.34219 L 201.71492,539.18451 L 188.29409,510.07939 L 182.10979,479.76369 L 223.74136,463.52708 L 233.50442,446.84286 L 248.53078,436.92212 L 260.16227,422.76427 L 287.05673,430.55427 L 286.68822,415.71212 L 305.95103,406.05427 L 327.55615,408.97518 L 322.52953,428.71196 L 349.05565,444.36973 L 364.81871,448.36956 L 377.97656,414.02724 L 383.05523,425.52708 L 389.84457,425.65865 L 393.63391,457.55319 L 409.71358,468.18426 L 424.50359,497.9736 C 401.67915,509.89454 377.73612,523.57784 352.03028,525.23641 C 325.93802,526.91991 294.99518,503.48217 270.10929,508.4998 C 245.2234,513.51743 223.01304,529.22806 199.21492,550.34219 z"
         id="path4571"
         style="fill:url(#radialGradient4573);fill-opacity:1;fill-rule:evenodd;stroke:none;stroke-width:1px;stroke-linecap:butt;stroke-linejoin:miter;stroke-opacity:1;display:inline" />
      <path
         d="M 489.07401,575.30455 L 493.32444,566.33393 L 499.97784,556.26025 L 502.72249,557.83448 L 504.78221,563.28999 L 511.40815,559.8414 L 513.92449,566.66677 C 513.92449,566.66677 507.14356,572.40464 504.56871,574.40539 C 499.54322,578.31037 492.26253,581.08844 486.08048,582.60062 C 482.17795,583.55521 472.84341,584.63148 472.84341,584.63148 L 481.06752,579.3564 M 534.27949,550.19039 C 532.07082,554.75848 522.57467,561.64856 522.57467,561.64856 L 526.39496,553.47202 L 523.07665,544.88151 L 513.57431,538.68035 L 519.26816,534.75619 L 520.41848,530.18387 L 520.16825,520.8626 L 515.3886,512.0591 L 513.83673,507.88396 L 512.14138,505.12326 L 508.21455,496.71427 L 511.32609,497.40531 L 513.46835,504.72172 L 515.32191,506.99607 L 515.62016,511.2867 L 520.35255,516.85362 L 524.32569,519.49978 L 525.10857,514.79711 L 526.48625,523.13789 L 532.5098,527.75307 L 539.15882,529.46845 L 543.88511,525.12178 L 546.26179,526.03503 L 545.15435,532.36998 L 541.88368,537.17497 L 534.71859,538.67691 C 534.71859,538.67691 535.7841,547.07849 534.27949,550.19039 z"
         id="path7122"
         style="fill:url(#radialGradient9072);fill-opacity:1;fill-rule:evenodd;stroke:none;stroke-width:1px;stroke-linecap:butt;stroke-linejoin:miter;stroke-opacity:1;display:inline" />
      <g
         transform="matrix(1.693078,0,0,1.693078,-299.99327,-285.60394)"
         id="g5895"
         style="fill:#327913;fill-opacity:1;stroke:none">
        <path
           d="M 294.41715,170.5778 L 296.42214,174.27121 L 299.27134,174.90436 L 297.26635,173.21595 L 297.68845,172.37174 L 294.94478,170.05017 L 294.41715,170.5778 z"
           transform="translate(127.714,219.179)"
           id="path5879"
           style="fill:#327913;fill-opacity:1;fill-rule:evenodd;stroke:none;stroke-width:1px;stroke-linecap:butt;stroke-linejoin:miter;stroke-opacity:1" />
        <path
           d="M 301.27633,174.37673 L 303.28132,174.69331 L 305.18079,176.2762 L 307.08025,177.12041 L 307.71341,178.59777 L 305.91947,178.59777 L 303.5979,177.22593 L 302.33159,175.95962 L 301.27633,174.37673 z"
           transform="translate(127.714,219.179)"
           id="path5881"
           style="fill:#327913;fill-opacity:1;fill-rule:evenodd;stroke:none;stroke-width:1px;stroke-linecap:butt;stroke-linejoin:miter;stroke-opacity:1" />
        <path
           d="M 309.50735,177.12041 L 309.7184,180.91934 L 313.62285,183.66301 L 312.46207,180.70829 L 311.40681,179.9696 L 310.66813,177.01488 L 309.50735,177.12041 z"
           transform="translate(127.714,219.179)"
           id="path5883"
           style="fill:#327913;fill-opacity:1;fill-rule:evenodd;stroke:none;stroke-width:1px;stroke-linecap:butt;stroke-linejoin:miter;stroke-opacity:1" />
        <path
           d="M 305.81394,180.39171 L 307.92446,180.91934 L 308.66314,180.91934 L 310.24603,183.13538 L 308.02998,183.24091 L 306.02499,182.8188 L 305.81394,180.39171 z"
           transform="translate(127.714,219.179)"
           id="path5885"
           style="fill:#327913;fill-opacity:1;fill-rule:evenodd;stroke:none;stroke-width:1px;stroke-linecap:butt;stroke-linejoin:miter;stroke-opacity:1" />
        <path
           d="M 311.72339,184.19064 L 313.20075,186.40668 L 315.8389,187.03984 L 315.20574,185.668 L 312.77865,184.29616 L 311.72339,184.19064 z"
           transform="translate(127.714,219.179)"
           id="path5887"
           style="fill:#327913;fill-opacity:1;fill-rule:evenodd;stroke:none;stroke-width:1px;stroke-linecap:butt;stroke-linejoin:miter;stroke-opacity:1" />
        <path
           d="M 295.78898,175.95962 L 298.63818,178.28119 L 299.16581,177.85909 L 301.27633,180.07513 L 301.59291,179.01987 L 299.27134,176.2762 L 298.3216,176.90935 L 296.31661,175.64304 L 295.78898,175.95962 z"
           transform="translate(127.714,219.179)"
           id="path5889"
           style="fill:#327913;fill-opacity:1;fill-rule:evenodd;stroke:none;stroke-width:1px;stroke-linecap:butt;stroke-linejoin:miter;stroke-opacity:1" />
        <path
           d="M 308.45209,188.9393 L 307.71341,187.46194 L 306.34157,188.30615 L 307.18578,189.88904 L 309.08524,189.99456 L 308.45209,188.9393 z"
           transform="translate(127.714,219.179)"
           id="path5891"
           style="fill:#327913;fill-opacity:1;fill-rule:evenodd;stroke:none;stroke-width:1px;stroke-linecap:butt;stroke-linejoin:miter;stroke-opacity:1" />
        <path
           d="M 308.87419,192.31613 L 308.55761,193.79349 L 309.82392,193.47691 L 308.87419,192.31613 z"
           transform="translate(127.714,219.179)"
           id="path5893"
           style="fill:#327913;fill-opacity:1;fill-rule:evenodd;stroke:none;stroke-width:1px;stroke-linecap:butt;stroke-linejoin:miter;stroke-opacity:1" />
      </g>
      <g
         transform="matrix(1.5910903,0,0,1.5910903,-310.78889,-265.88549)"
         id="g5923"
         style="fill:#327913;fill-opacity:1">
        <path
           d="M 366.38578,209.93895 L 369.76261,208.88369 L 371.7676,210.46658 L 371.55655,213.52683 L 370.07919,213.21025 L 369.12946,213.4213 L 366.17473,212.15499 L 366.70236,211.09973 L 366.38578,209.93895 z"
           transform="translate(127.714,219.179)"
           id="path5907"
           style="fill:#327913;fill-opacity:1;fill-rule:evenodd;stroke:none;stroke-width:1px;stroke-linecap:butt;stroke-linejoin:miter;stroke-opacity:1" />
        <path
           d="M 370.9234,214.68761 L 370.9234,216.48155 L 371.97865,216.37603 L 370.9234,214.68761 z"
           transform="translate(127.714,219.179)"
           id="path5909"
           style="fill:#327913;fill-opacity:1;fill-rule:evenodd;stroke:none;stroke-width:1px;stroke-linecap:butt;stroke-linejoin:miter;stroke-opacity:1" />
        <path
           d="M 370.9234,207.08975 L 373.56154,206.24554 L 375.46101,205.29581 L 376.41074,205.50686 L 374.6168,207.61738 L 376.09416,207.72291 L 374.30022,208.25053 L 373.45602,207.72291 L 371.87313,208.67264 L 370.9234,207.08975 z"
           transform="translate(127.714,219.179)"
           id="path5911"
           style="fill:#327913;fill-opacity:1;fill-rule:evenodd;stroke:none;stroke-width:1px;stroke-linecap:butt;stroke-linejoin:miter;stroke-opacity:1" />
        <path
           d="M 376.83284,208.88369 L 377.25495,210.15 L 378.31021,209.62237 L 376.83284,208.88369 z"
           transform="translate(127.714,219.179)"
           id="path5913"
           style="fill:#327913;fill-opacity:1;fill-rule:evenodd;stroke:none;stroke-width:1px;stroke-linecap:butt;stroke-linejoin:miter;stroke-opacity:1" />
        <path
           d="M 378.52126,207.61738 L 379.15441,207.40633 L 378.20468,206.35107 L 378.52126,207.61738 z"
           transform="translate(127.714,219.179)"
           id="path5915"
           style="fill:#327913;fill-opacity:1;fill-rule:evenodd;stroke:none;stroke-width:1px;stroke-linecap:butt;stroke-linejoin:miter;stroke-opacity:1" />
        <path
           d="M 377.8881,203.6074 L 380.10415,205.82344 L 379.15441,205.71791 L 377.67705,204.87371 L 377.8881,203.6074 z"
           transform="translate(127.714,219.179)"
           id="path5917"
           style="fill:#327913;fill-opacity:1;fill-rule:evenodd;stroke:none;stroke-width:1px;stroke-linecap:butt;stroke-linejoin:miter;stroke-opacity:1" />
        <path
           d="M 379.68204,212.04947 L 380.10415,213.94893 L 381.05388,213.4213 L 380.7373,212.04947 L 379.68204,212.04947 z"
           transform="translate(127.714,219.179)"
           id="path5919"
           style="fill:#327913;fill-opacity:1;fill-rule:evenodd;stroke:none;stroke-width:1px;stroke-linecap:butt;stroke-linejoin:miter;stroke-opacity:1" />
        <path
           d="M 378.09915,215.53182 L 379.57652,216.16497 L 379.99862,215.10972 L 378.52126,214.79314 L 378.09915,215.53182 z"
           transform="translate(127.714,219.179)"
           id="path5921"
           style="fill:#327913;fill-opacity:1;fill-rule:evenodd;stroke:none;stroke-width:1px;stroke-linecap:butt;stroke-linejoin:miter;stroke-opacity:1" />
      </g>
      <g
         transform="matrix(1.9878489,0,0,1.9878489,-540.37408,-409.42424)"
         id="g5937"
         style="fill:#327913;fill-opacity:1;stroke:none">
        <path
           d="M 400.04853,195.48191 L 402.68668,195.27085 L 403.95299,197.17032 L 402.05352,197.38137 L 400.04853,195.48191 z"
           transform="translate(127.714,219.179)"
           id="path5905"
           style="fill:#327913;fill-opacity:1;fill-rule:evenodd;stroke:none;stroke-width:1px;stroke-linecap:butt;stroke-linejoin:miter;stroke-opacity:1" />
        <path
           d="M 408.0685,197.69795 L 407.01324,199.28084 L 408.38508,199.91399 L 409.65139,198.85873 L 408.0685,197.69795 z"
           transform="translate(127.714,219.179)"
           id="path5933"
           style="fill:#327913;fill-opacity:1;fill-rule:evenodd;stroke:none;stroke-width:1px;stroke-linecap:butt;stroke-linejoin:miter;stroke-opacity:1" />
        <path
           d="M 413.97795,196.74822 L 412.71164,198.54216 L 415.03321,199.91399 L 415.45531,198.3311 L 413.97795,196.74822 z"
           transform="translate(127.714,219.179)"
           id="path5935"
           style="fill:#327913;fill-opacity:1;fill-rule:evenodd;stroke:none;stroke-width:1px;stroke-linecap:butt;stroke-linejoin:miter;stroke-opacity:1" />
      </g>
      <g
         transform="matrix(1.9928606,0,0,1.9928606,-536.07101,-425.37052)"
         id="g5956"
         style="fill:#327913;fill-opacity:1">
        <path
           d="M 394.77224,211.94394 L 395.61645,210.78316 L 396.67171,211.83841 L 396.56618,212.47157 L 396.88276,213.21025 L 395.72197,213.52683 L 394.77224,211.94394 z"
           transform="translate(127.714,219.179)"
           id="path5942"
           style="fill:#327913;fill-opacity:1;fill-rule:evenodd;stroke:none;stroke-width:1px;stroke-linecap:butt;stroke-linejoin:miter;stroke-opacity:1" />
        <path
           d="M 392.87277,214.26551 L 393.71698,215.21524 L 394.77224,214.79314 L 394.24461,213.73788 L 392.87277,214.26551 z"
           transform="translate(127.714,219.179)"
           id="path5944"
           style="fill:#327913;fill-opacity:1;fill-rule:evenodd;stroke:none;stroke-width:1px;stroke-linecap:butt;stroke-linejoin:miter;stroke-opacity:1" />
        <path
           d="M 395.61645,217.95891 L 396.56618,218.06444 L 396.88276,217.22023 L 396.2496,216.90366 L 395.61645,217.95891 z"
           transform="translate(127.714,219.179)"
           id="path5946"
           style="fill:#327913;fill-opacity:1;fill-rule:evenodd;stroke:none;stroke-width:1px;stroke-linecap:butt;stroke-linejoin:miter;stroke-opacity:1" />
        <path
           d="M 392.02857,216.48155 L 393.08383,217.95891 L 392.02857,218.59207 L 391.39541,217.53681 L 392.02857,216.48155 z"
           transform="translate(127.714,219.179)"
           id="path5948"
           style="fill:#327913;fill-opacity:1;fill-rule:evenodd;stroke:none;stroke-width:1px;stroke-linecap:butt;stroke-linejoin:miter;stroke-opacity:1" />
        <path
           d="M 393.61146,219.96391 L 394.35014,220.38601 L 394.87777,219.33075 L 394.35014,219.01417 L 393.61146,219.96391 z"
           transform="translate(127.714,219.179)"
           id="path5950"
           style="fill:#327913;fill-opacity:1;fill-rule:evenodd;stroke:none;stroke-width:1px;stroke-linecap:butt;stroke-linejoin:miter;stroke-opacity:1" />
        <path
           d="M 391.50094,220.59706 L 392.66172,221.23022 L 392.45067,221.9689 L 391.60646,222.07442 L 391.50094,220.59706 z"
           transform="translate(127.714,219.179)"
           id="path5952"
           style="fill:#327913;fill-opacity:1;fill-rule:evenodd;stroke:none;stroke-width:1px;stroke-linecap:butt;stroke-linejoin:miter;stroke-opacity:1" />
        <path
           d="M 392.02857,224.07941 L 393.92803,225.34572 L 394.35014,223.97389 L 394.56119,222.8131 L 393.71698,222.60205 L 392.02857,224.07941 z"
           transform="translate(127.714,219.179)"
           id="path5954"
           style="fill:#327913;fill-opacity:1;fill-rule:evenodd;stroke:none;stroke-width:1px;stroke-linecap:butt;stroke-linejoin:miter;stroke-opacity:1" />
      </g>
      <g
         transform="matrix(1.8723347,0,0,1.8723347,-403.83527,-372.98284)"
         id="g6001"
         style="fill:#367b16;fill-opacity:1">
        <path
           d="M 329.55726,199.70294 L 330.08489,202.02451 L 330.19041,203.6074 L 332.51198,203.6074 L 332.61751,202.34109 L 331.7733,200.7582 L 331.14015,201.70793 L 331.03462,200.65267 L 330.19041,199.49189 L 329.55726,199.70294 z"
           transform="translate(127.714,219.179)"
           id="path5965"
           style="fill:#367b16;fill-opacity:1;fill-rule:evenodd;stroke:none;stroke-width:1px;stroke-linecap:butt;stroke-linejoin:miter;stroke-opacity:1" />
        <path
           d="M 334.72803,202.13003 L 333.98935,202.97424 L 334.72803,203.29082 L 335.0446,202.97424 L 334.72803,202.13003 z"
           transform="translate(127.714,219.179)"
           id="path5967"
           style="fill:#367b16;fill-opacity:1;fill-rule:evenodd;stroke:none;stroke-width:1px;stroke-linecap:butt;stroke-linejoin:miter;stroke-opacity:1" />
        <path
           d="M 335.25566,200.65267 L 335.36118,202.86872 L 336.20539,202.02451 L 335.25566,200.65267 z"
           transform="translate(127.714,219.179)"
           id="path5969"
           style="fill:#367b16;fill-opacity:1;fill-rule:evenodd;stroke:none;stroke-width:1px;stroke-linecap:butt;stroke-linejoin:miter;stroke-opacity:1" />
        <path
           d="M 332.72303,197.909 L 332.82856,198.64768 L 333.56724,198.54216 L 333.67277,197.909 L 332.72303,197.909 z"
           transform="translate(127.714,219.179)"
           id="path5971"
           style="fill:#367b16;fill-opacity:1;fill-rule:evenodd;stroke:none;stroke-width:1px;stroke-linecap:butt;stroke-linejoin:miter;stroke-opacity:1" />
        <path
           d="M 333.03961,196.64269 L 333.14514,197.27585 L 333.67277,197.27585 L 333.77829,196.64269 L 333.03961,196.64269 z"
           transform="translate(127.714,219.179)"
           id="path5973"
           style="fill:#367b16;fill-opacity:1;fill-rule:evenodd;stroke:none;stroke-width:1px;stroke-linecap:butt;stroke-linejoin:miter;stroke-opacity:1" />
        <path
           d="M 333.67277,194.32112 L 333.67277,194.95428 L 334.2004,194.95428 L 333.67277,194.32112 z"
           transform="translate(127.714,219.179)"
           id="path5975"
           style="fill:#367b16;fill-opacity:1;fill-rule:evenodd;stroke:none;stroke-width:1px;stroke-linecap:butt;stroke-linejoin:miter;stroke-opacity:1" />
        <path
           d="M 329.87384,194.2156 L 329.87384,195.16533 L 330.50699,195.16533 L 329.87384,194.2156 z"
           transform="translate(127.714,219.179)"
           id="path5977"
           style="fill:#367b16;fill-opacity:1;fill-rule:evenodd;stroke:none;stroke-width:1px;stroke-linecap:butt;stroke-linejoin:miter;stroke-opacity:1" />
        <path
           d="M 335.67776,203.50187 L 335.25566,204.87371 L 336.09986,204.87371 L 335.67776,203.50187 z"
           transform="translate(127.714,219.179)"
           id="path5979"
           style="fill:#367b16;fill-opacity:1;fill-rule:evenodd;stroke:none;stroke-width:1px;stroke-linecap:butt;stroke-linejoin:miter;stroke-opacity:1" />
        <path
           d="M 332.30093,204.34608 L 331.87883,205.19028 L 332.82856,205.61239 L 332.93409,206.77317 L 333.56724,207.51185 L 334.2004,206.98422 L 334.30592,205.92897 L 333.35619,204.87371 L 332.30093,204.34608 z"
           transform="translate(127.714,219.179)"
           id="path5981"
           style="fill:#367b16;fill-opacity:1;fill-rule:evenodd;stroke:none;stroke-width:1px;stroke-linecap:butt;stroke-linejoin:miter;stroke-opacity:1" />
        <path
           d="M 334.93908,205.50686 L 335.57223,206.35107 L 336.41644,206.14002 L 336.20539,205.50686 L 334.93908,205.50686 z"
           transform="translate(127.714,219.179)"
           id="path5983"
           style="fill:#367b16;fill-opacity:1;fill-rule:evenodd;stroke:none;stroke-width:1px;stroke-linecap:butt;stroke-linejoin:miter;stroke-opacity:1" />
        <path
           d="M 335.57223,207.19528 L 335.46671,207.93396 L 336.83854,207.93396 L 335.57223,207.19528 z"
           transform="translate(127.714,219.179)"
           id="path5985"
           style="fill:#367b16;fill-opacity:1;fill-rule:evenodd;stroke:none;stroke-width:1px;stroke-linecap:butt;stroke-linejoin:miter;stroke-opacity:1" />
        <path
           d="M 334.30592,207.93396 L 333.67277,208.98922 L 335.0446,208.98922 L 334.30592,207.93396 z"
           transform="translate(127.714,219.179)"
           id="path5987"
           style="fill:#367b16;fill-opacity:1;fill-rule:evenodd;stroke:none;stroke-width:1px;stroke-linecap:butt;stroke-linejoin:miter;stroke-opacity:1" />
        <path
           d="M 336.83854,208.88369 L 336.83854,209.51685 L 337.99933,209.09474 L 336.83854,208.88369 z"
           transform="translate(127.714,219.179)"
           id="path5989"
           style="fill:#367b16;fill-opacity:1;fill-rule:evenodd;stroke:none;stroke-width:1px;stroke-linecap:butt;stroke-linejoin:miter;stroke-opacity:1" />
        <path
           d="M 335.78328,210.25553 L 335.36118,211.83841 L 336.73302,212.36604 L 337.57722,211.52184 L 335.78328,210.25553 z"
           transform="translate(127.714,219.179)"
           id="path5991"
           style="fill:#367b16;fill-opacity:1;fill-rule:evenodd;stroke:none;stroke-width:1px;stroke-linecap:butt;stroke-linejoin:miter;stroke-opacity:1" />
        <path
           d="M 338.63248,214.15998 L 338.31591,215.32077 L 339.89879,215.63734 L 339.68774,215.10972 L 338.63248,214.15998 z"
           transform="translate(127.714,219.179)"
           id="path5993"
           style="fill:#367b16;fill-opacity:1;fill-rule:evenodd;stroke:none;stroke-width:1px;stroke-linecap:butt;stroke-linejoin:miter;stroke-opacity:1" />
        <path
           d="M 339.16011,217.00918 L 339.16011,218.27549 L 340.3209,218.59207 L 340.3209,217.53681 L 339.16011,217.00918 z"
           transform="translate(127.714,219.179)"
           id="path5995"
           style="fill:#367b16;fill-opacity:1;fill-rule:evenodd;stroke:none;stroke-width:1px;stroke-linecap:butt;stroke-linejoin:miter;stroke-opacity:1" />
        <path
           d="M 342.32589,217.53681 L 342.11484,218.38102 L 343.06457,218.06444 L 342.32589,217.53681 z"
           transform="translate(127.714,219.179)"
           id="path5997"
           style="fill:#367b16;fill-opacity:1;fill-rule:evenodd;stroke:none;stroke-width:1px;stroke-linecap:butt;stroke-linejoin:miter;stroke-opacity:1" />
        <path
           d="M 341.48168,219.64733 L 340.84853,220.28048 L 341.48168,220.38601 L 341.48168,219.64733 z"
           transform="translate(127.714,219.179)"
           id="path5999"
           style="fill:#367b16;fill-opacity:1;fill-rule:evenodd;stroke:none;stroke-width:1px;stroke-linecap:butt;stroke-linejoin:miter;stroke-opacity:1" />
      </g>
      <g
         transform="matrix(1.3108318,0,0,1.3108318,-135.46278,-121.49323)"
         id="g6051"
         style="fill:#327813;fill-opacity:1">
        <path
           d="M 321.53729,220.38601 L 322.59255,222.60205 L 325.86385,225.6623 L 328.60753,226.92861 L 329.76831,228.40597 L 332.08988,228.5115 L 331.98435,227.35072 L 329.34621,225.02915 L 325.86385,222.391 L 322.90913,219.96391 L 321.53729,220.38601 z"
           transform="translate(127.714,219.179)"
           id="path6021"
           style="fill:#327813;fill-opacity:1;fill-rule:evenodd;stroke:none;stroke-width:1px;stroke-linecap:butt;stroke-linejoin:miter;stroke-opacity:1" />
        <path
           d="M 320.37651,217.22023 L 319.5323,218.16997 L 319.84888,219.33075 L 320.90414,219.43628 L 320.37651,217.22023 z"
           transform="translate(127.714,219.179)"
           id="path6023"
           style="fill:#327813;fill-opacity:1;fill-rule:evenodd;stroke:none;stroke-width:1px;stroke-linecap:butt;stroke-linejoin:miter;stroke-opacity:1" />
        <path
           d="M 317.52731,213.21025 L 317.63284,214.68761 L 318.89915,214.68761 L 318.58257,213.31578 L 317.52731,213.21025 z"
           transform="translate(127.714,219.179)"
           id="path6025"
           style="fill:#327813;fill-opacity:1;fill-rule:evenodd;stroke:none;stroke-width:1px;stroke-linecap:butt;stroke-linejoin:miter;stroke-opacity:1" />
        <path
           d="M 317.10521,211.20526 L 317.31626,212.15499 L 318.79362,211.94394 L 317.10521,211.20526 z"
           transform="translate(127.714,219.179)"
           id="path6027"
           style="fill:#327813;fill-opacity:1;fill-rule:evenodd;stroke:none;stroke-width:1px;stroke-linecap:butt;stroke-linejoin:miter;stroke-opacity:1" />
        <path
           d="M 306.76367,215.8484 L 306.4471,217.22023 L 307.71341,216.79813 L 306.76367,215.8484 z"
           transform="translate(127.714,219.179)"
           id="path6029"
           style="fill:#327813;fill-opacity:1;fill-rule:evenodd;stroke:none;stroke-width:1px;stroke-linecap:butt;stroke-linejoin:miter;stroke-opacity:1" />
        <path
           d="M 304.02,215.8484 L 303.17579,217.00918 L 304.23105,216.90366 L 304.02,215.8484 z"
           transform="translate(127.714,219.179)"
           id="path6031"
           style="fill:#327813;fill-opacity:1;fill-rule:evenodd;stroke:none;stroke-width:1px;stroke-linecap:butt;stroke-linejoin:miter;stroke-opacity:1" />
        <path
           d="M 301.69843,215.95392 L 300.7487,217.95891 L 301.80396,218.06444 L 302.43711,216.58708 L 301.69843,215.95392 z"
           transform="translate(127.714,219.179)"
           id="path6033"
           style="fill:#327813;fill-opacity:1;fill-rule:evenodd;stroke:none;stroke-width:1px;stroke-linecap:butt;stroke-linejoin:miter;stroke-opacity:1" />
        <path
           d="M 301.80396,221.75784 L 301.90948,223.12968 L 303.49237,222.60205 L 301.80396,221.75784 z"
           transform="translate(127.714,219.179)"
           id="path6035"
           style="fill:#327813;fill-opacity:1;fill-rule:evenodd;stroke:none;stroke-width:1px;stroke-linecap:butt;stroke-linejoin:miter;stroke-opacity:1" />
        <path
           d="M 303.07027,223.97389 L 303.07027,225.34572 L 304.65316,225.2402 L 304.75868,224.50152 L 303.07027,223.97389 z"
           transform="translate(127.714,219.179)"
           id="path6037"
           style="fill:#327813;fill-opacity:1;fill-rule:evenodd;stroke:none;stroke-width:1px;stroke-linecap:butt;stroke-linejoin:miter;stroke-opacity:1" />
        <path
           d="M 305.28631,225.76783 L 305.28631,226.50651 L 307.18578,226.50651 L 305.28631,225.76783 z"
           transform="translate(127.714,219.179)"
           id="path6039"
           style="fill:#327813;fill-opacity:1;fill-rule:evenodd;stroke:none;stroke-width:1px;stroke-linecap:butt;stroke-linejoin:miter;stroke-opacity:1" />
        <path
           d="M 331.87883,221.65232 L 331.66778,223.02416 L 333.88382,224.07941 L 332.93409,222.49653 L 331.87883,221.65232 z"
           transform="translate(127.714,219.179)"
           id="path6041"
           style="fill:#327813;fill-opacity:1;fill-rule:evenodd;stroke:none;stroke-width:1px;stroke-linecap:butt;stroke-linejoin:miter;stroke-opacity:1" />
        <path
           d="M 335.0446,224.29047 L 334.83355,225.76783 L 335.99434,225.45125 L 335.0446,224.29047 z"
           transform="translate(127.714,219.179)"
           id="path6043"
           style="fill:#327813;fill-opacity:1;fill-rule:evenodd;stroke:none;stroke-width:1px;stroke-linecap:butt;stroke-linejoin:miter;stroke-opacity:1" />
        <path
           d="M 338.10485,228.40597 L 337.57722,230.09439 L 339.05459,229.67228 L 338.10485,228.40597 z"
           transform="translate(127.714,219.179)"
           id="path6045"
           style="fill:#327813;fill-opacity:1;fill-rule:evenodd;stroke:none;stroke-width:1px;stroke-linecap:butt;stroke-linejoin:miter;stroke-opacity:1" />
        <path
           d="M 346.8635,227.45624 L 346.65245,228.82808 L 347.81323,228.5115 L 346.8635,227.45624 z"
           transform="translate(127.714,219.179)"
           id="path6047"
           style="fill:#327813;fill-opacity:1;fill-rule:evenodd;stroke:none;stroke-width:1px;stroke-linecap:butt;stroke-linejoin:miter;stroke-opacity:1" />
        <path
           d="M 349.29059,227.87834 L 348.86849,229.67228 L 349.7127,229.77781 L 349.29059,227.87834 z"
           transform="translate(127.714,219.179)"
           id="path6049"
           style="fill:#327813;fill-opacity:1;fill-rule:evenodd;stroke:none;stroke-width:1px;stroke-linecap:butt;stroke-linejoin:miter;stroke-opacity:1" />
      </g>
      <g
         transform="matrix(2.1160346,0,0,2.1160346,-736.50428,-471.40941)"
         id="g6072"
         style="fill:#327913;fill-opacity:1">
        <path
           d="M 480.24819,208.67264 L 478.34872,210.04447 L 479.93161,211.41631 L 482.78081,211.62736 L 480.24819,208.67264 z"
           transform="translate(127.714,219.179)"
           id="path6068"
           style="fill:#327913;fill-opacity:1;fill-rule:evenodd;stroke:none;stroke-width:1px;stroke-linecap:butt;stroke-linejoin:miter;stroke-opacity:1" />
        <path
           d="M 485.73553,210.78316 L 485.31343,211.83841 L 486.89632,212.47157 L 487.21289,211.73289 L 485.73553,210.78316 z"
           transform="translate(127.714,219.179)"
           id="path6070"
           style="fill:#327913;fill-opacity:1;fill-rule:evenodd;stroke:none;stroke-width:1px;stroke-linecap:butt;stroke-linejoin:miter;stroke-opacity:1" />
      </g>
      <g
         transform="translate(-36.526969,26.634247)"
         id="g6138"
         style="fill:#337914;fill-opacity:1">
        <path
           d="M 445.42465,214.26551 L 444.89702,215.42629 L 446.26886,216.05945 L 445.42465,214.26551 z"
           transform="translate(127.714,219.179)"
           id="path6076"
           style="fill:#337914;fill-opacity:1;fill-rule:evenodd;stroke:none;stroke-width:1px;stroke-linecap:butt;stroke-linejoin:miter;stroke-opacity:1" />
        <path
           d="M 447.74622,215.53182 L 447.53517,217.43128 L 448.90701,217.11471 L 447.74622,215.53182 z"
           transform="translate(127.714,219.179)"
           id="path6078"
           style="fill:#337914;fill-opacity:1;fill-rule:evenodd;stroke:none;stroke-width:1px;stroke-linecap:butt;stroke-linejoin:miter;stroke-opacity:1" />
        <path
           d="M 451.65068,217.32576 L 451.22857,218.48654 L 452.49489,218.27549 L 451.65068,217.32576 z"
           transform="translate(127.714,219.179)"
           id="path6080"
           style="fill:#337914;fill-opacity:1;fill-rule:evenodd;stroke:none;stroke-width:1px;stroke-linecap:butt;stroke-linejoin:miter;stroke-opacity:1" />
        <path
           d="M 453.23357,219.22522 L 453.33909,220.17496 L 454.6054,220.49153 L 452.81146,218.59207 L 454.49988,219.64733 L 453.23357,219.22522 z"
           transform="translate(127.714,219.179)"
           id="path6082"
           style="fill:#337914;fill-opacity:1;fill-rule:evenodd;stroke:none;stroke-width:1px;stroke-linecap:butt;stroke-linejoin:miter;stroke-opacity:1" />
        <path
           d="M 448.90701,218.80312 L 448.37938,219.75285 L 449.85674,219.96391 L 448.90701,218.80312 z"
           transform="translate(127.714,219.179)"
           id="path6084"
           style="fill:#337914;fill-opacity:1;fill-rule:evenodd;stroke:none;stroke-width:1px;stroke-linecap:butt;stroke-linejoin:miter;stroke-opacity:1" />
        <path
           d="M 451.3341,226.40098 L 451.22857,227.56177 L 453.23357,228.0894 L 451.3341,226.40098 z"
           transform="translate(127.714,219.179)"
           id="path6086"
           style="fill:#337914;fill-opacity:1;fill-rule:evenodd;stroke:none;stroke-width:1px;stroke-linecap:butt;stroke-linejoin:miter;stroke-opacity:1" />
        <path
           d="M 445.84676,223.34073 L 443.84176,224.07941 L 444.26387,225.13467 L 446.16333,225.6623 L 445.84676,223.34073 z"
           transform="translate(127.714,219.179)"
           id="path6088"
           style="fill:#337914;fill-opacity:1;fill-rule:evenodd;stroke:none;stroke-width:1px;stroke-linecap:butt;stroke-linejoin:miter;stroke-opacity:1" />
        <path
           d="M 434.13339,211.41631 L 433.50023,212.36604 L 434.23891,212.9992 L 434.13339,211.41631 z"
           transform="translate(127.714,219.179)"
           id="path6090"
           style="fill:#337914;fill-opacity:1;fill-rule:evenodd;stroke:none;stroke-width:1px;stroke-linecap:butt;stroke-linejoin:miter;stroke-opacity:1" />
        <path
           d="M 433.81681,194.11007 L 433.81681,195.27085 L 434.97759,195.37638 L 433.81681,194.11007 z"
           transform="translate(127.714,219.179)"
           id="path6092"
           style="fill:#337914;fill-opacity:1;fill-rule:evenodd;stroke:none;stroke-width:1px;stroke-linecap:butt;stroke-linejoin:miter;stroke-opacity:1" />
        <path
           d="M 425.79684,188.30615 C 425.79684,188.30615 425.37474,188.0951 425.69132,189.04483 C 426.00789,189.99456 426.74658,189.36141 426.74658,189.36141 L 425.79684,188.30615 z"
           transform="translate(127.714,219.179)"
           id="path6094"
           style="fill:#337914;fill-opacity:1;fill-rule:evenodd;stroke:none;stroke-width:1px;stroke-linecap:butt;stroke-linejoin:miter;stroke-opacity:1" />
        <path
           d="M 424.31948,185.668 L 424.63606,186.72326 L 425.37474,186.19563 L 424.31948,185.668 z"
           transform="translate(127.714,219.179)"
           id="path6096"
           style="fill:#337914;fill-opacity:1;fill-rule:evenodd;stroke:none;stroke-width:1px;stroke-linecap:butt;stroke-linejoin:miter;stroke-opacity:1" />
        <path
           d="M 439.40968,182.29117 L 440.46494,183.02985 L 439.40968,182.29117 z"
           transform="translate(127.714,219.179)"
           id="path6098"
           style="fill:#337914;fill-opacity:1;fill-rule:evenodd;stroke:none;stroke-width:1px;stroke-linecap:butt;stroke-linejoin:miter;stroke-opacity:1" />
        <path
           d="M 441.5202,183.97959 L 441.5202,184.71827 L 442.46993,185.03485 L 442.04783,185.03485 L 441.5202,183.97959 z"
           transform="translate(127.714,219.179)"
           id="path6100"
           style="fill:#337914;fill-opacity:1;fill-rule:evenodd;stroke:none;stroke-width:1px;stroke-linecap:butt;stroke-linejoin:miter;stroke-opacity:1" />
        <path
           d="M 452.07278,178.91435 L 451.96726,179.9696 L 452.91699,179.86408 L 452.07278,178.91435 z"
           transform="translate(127.714,219.179)"
           id="path6102"
           style="fill:#337914;fill-opacity:1;fill-rule:evenodd;stroke:none;stroke-width:1px;stroke-linecap:butt;stroke-linejoin:miter;stroke-opacity:1" />
      </g>
      <path
         d="M 352.81023,369.49608 L 342.5429,360.20968 L 330.90662,357.22403 L 322.876,355.363 L 320.86997,352.10805 L 323.14782,346.73054 L 318.92228,346.7745 L 310.5036,341.99108 L 324.45002,342.04927 L 326.3901,346.00821 L 326.10531,350.17556 L 328.79336,351.88004 L 330.71274,354.79849 L 338.8727,354.85288 L 345.15994,347.68691 L 372.20993,356.52495 L 382.10184,362.17063 L 384.66611,366.68421 L 390.78164,369.5742 C 390.78164,369.5742 374.31464,366.07497 367.45477,366.40074 C 362.94333,366.61499 352.81023,369.49608 352.81023,369.49608 z"
         id="path4688"
         style="fill:url(#radialGradient3346);fill-opacity:1;fill-rule:evenodd;stroke:none;stroke-width:1px;stroke-linecap:butt;stroke-linejoin:miter;stroke-opacity:1;display:inline" />
    </g>
  </g>
</svg>
